<?xml version="1.0" encoding="UTF-8"?>
<svg xmlns="http://www.w3.org/2000/svg" version="1.1" viewBox="0 0 640 512">
  <!-- Generator: Adobe Illustrator 28.6.0, SVG Export Plug-In . SVG Version: 1.2.0 Build 709)  -->
  <g>
    <g id="Layer_1">
      <path d="M21.1,301.3c-11.7,0-21.1-9.5-21.1-21.1v-47.3c0-11.7,9.5-21.1,21.1-21.1s21.1,9.5,21.1,21.1v47.3c0,11.7-9.5,21.1-21.1,21.1Z"/>
      <path d="M87.4,322.7c-11.7,0-21.1-9.5-21.1-21.1v-90.1c0-11.7,9.5-21.1,21.1-21.1s21.1,9.5,21.1,21.1v90.1c0,11.7-9.5,21.1-21.1,21.1Z"/>
      <path d="M153.7,359.2c-11.7,0-21.1-9.5-21.1-21.1v-163.1c0-11.7,9.5-21.1,21.1-21.1s21.1,9.5,21.1,21.1v163.1c0,11.7-9.5,21.1-21.1,21.1Z"/>
      <path d="M220,448.3c-11.7,0-21.1-9.5-21.1-21.1V85.9c0-11.7,9.5-21.1,21.1-21.1s21.1,9.5,21.1,21.1v341.3c0,11.7-9.5,21.1-21.1,21.1Z"/>
      <path d="M286.3,478.1c-11.7,0-21.1-9.5-21.1-21.1V56.1c0-11.7,9.5-21.1,21.1-21.1s21.1,9.5,21.1,21.1v400.8c0,11.7-9.5,21.1-21.1,21.1Z"/>
      <path d="M352.6,394c-11.7,0-21.1-9.5-21.1-21.1v-232.7c0-11.7,9.5-21.1,21.1-21.1s21.1,9.5,21.1,21.1v232.7c0,11.7-9.5,21.1-21.1,21.1Z"/>
      <path d="M418.9,427.5c-11.7,0-21.1-9.5-21.1-21.1V106.7c0-11.7,9.5-21.1,21.1-21.1s21.1,9.5,21.1,21.1v299.7c0,11.7-9.5,21.1-21.1,21.1Z"/>
      <path d="M485.2,359.2c-11.7,0-21.1-9.5-21.1-21.1v-163.1c0-11.7,9.5-21.1,21.1-21.1s21.1,9.5,21.1,21.1v163.1c0,11.7-9.5,21.1-21.1,21.1Z"/>
      <path d="M551.5,307.2c-11.7,0-21.1-9.5-21.1-21.1v-68.4c0-11.7,9.5-21.1,21.1-21.1s21.1,9.5,21.1,21.1v68.4c0,11.7-9.5,21.1-21.1,21.1Z"/>
      <path d="M617.7,301.3c-11.7,0-21.1-9.5-21.1-21.1v-47.3c0-11.7,9.5-21.1,21.1-21.1s21.1,9.5,21.1,21.1v47.3c0,11.7-9.5,21.1-21.1,21.1Z"/>
    </g>
  </g>
</svg>