<?xml version="1.0" encoding="UTF-8"?>
<svg id="a" xmlns="http://www.w3.org/2000/svg" viewBox="0 0 1200 1200">
    <defs>
        <style>
            .b{fill:#009ff5;}
            .c{fill:#0051f5;}
            .d{fill:#0004f5;}
            .e{fill:#0107f5;}
            .f{fill:#9c00f5;}
            .g{fill:#4c00f5;}
        </style>
    </defs>
    <path class="c"
          d="M57.23,698.53c-21.26,0-38.5-17.24-38.5-38.5v-86.22c0-21.26,17.24-38.5,38.5-38.5s38.5,17.24,38.5,38.5v86.22c0,21.26-17.24,38.5-38.5,38.5Z"/>
    <path class="g"
          d="M177.97,737.5c-21.26,0-38.5-17.24-38.5-38.5v-164.15c0-21.26,17.24-38.5,38.5-38.5s38.5,17.24,38.5,38.5v164.15c0,21.26-17.24,38.5-38.5,38.5Z"/>
    <path class="d"
          d="M298.71,803.99c-21.26,0-38.5-17.24-38.5-38.5v-297.13c0-21.26,17.24-38.5,38.5-38.5s38.5,17.24,38.5,38.5v297.13c0,21.26-17.24,38.5-38.5,38.5Z"/>
    <path class="b"
          d="M419.44,966.2c-21.26,0-38.5-17.24-38.5-38.5V306.14c0-21.26,17.24-38.5,38.5-38.5s38.5,17.24,38.5,38.5v621.56c0,21.26-17.24,38.5-38.5,38.5Z"/>
    <path class="f"
          d="M540.18,1020.41c-21.26,0-38.5-17.24-38.5-38.5V251.93c0-21.26,17.24-38.5,38.5-38.5s38.5,17.24,38.5,38.5v729.98c0,21.26-17.24,38.5-38.5,38.5Z"/>
    <path class="e"
          d="M660.92,867.38c-21.26,0-38.5-17.24-38.5-38.5v-423.91c0-21.26,17.24-38.5,38.5-38.5s38.5,17.24,38.5,38.5v423.91c0,21.26-17.24,38.5-38.5,38.5Z"/>
    <path class="c"
          d="M781.65,928.37c-21.26,0-38.5-17.24-38.5-38.5V343.98c0-21.26,17.24-38.5,38.5-38.5s38.5,17.24,38.5,38.5v545.89c0,21.26-17.24,38.5-38.5,38.5Z"/>
    <path class="g"
          d="M902.39,803.99c-21.26,0-38.5-17.24-38.5-38.5v-297.13c0-21.26,17.24-38.5,38.5-38.5s38.5,17.24,38.5,38.5v297.13c0,21.26-17.24,38.5-38.5,38.5Z"/>
    <path class="d"
          d="M1023.13,709.26c-21.26,0-38.5-17.24-38.5-38.5v-124.62c0-21.26,17.24-38.5,38.5-38.5s38.5,17.24,38.5,38.5v124.62c0,21.26-17.24,38.5-38.5,38.5Z"/>
    <path class="b"
          d="M1143.87,698.53c-21.26,0-38.5-17.24-38.5-38.5v-86.22c0-21.26,17.24-38.5,38.5-38.5s38.5,17.24,38.5,38.5v86.22c0,21.26-17.24,38.5-38.5,38.5Z"/>
</svg>
